Simulation
nRows=36
nColumns=15
endheader
time  TH_x TH_y TH_z SC_y  SC_z  SC_x  AC_y  AC_z  AC_x  GH_y  GH_z  GH_yy  EL_x  PS_y
0.0  0.000000  0.000000  0.000000  28.751891803785867  20.267359717917188  9.5712049515388  -19.838315086127867  9.037860069439322  -13.617488041317497  4.732995086987527  -14.51506631691672  46.15944482427599  26.907512099290813  0.000000
0.039  0.000000  0.000000  0.000000  6.721512839396383  22.102686836623064  6.418687294713823  28.991083821994863  8.532221175434294  0.2934999230175132  -2.39096241982102  -17.774212403310763  37.69100536395794  25.87015872414956  0.000000
0.078  0.000000  0.000000  0.000000  -19.01918315924303  18.499379946083035  4.407256044123238  53.433925355987284  4.233527257858178  8.844363339591649  1.53537849285939  -8.047137151864634  34.97581176727875  24.181246676351417  0.000000
0.11699999999999999  0.000000  0.000000  0.000000  -27.374567524726153  8.32502906393832  2.150050311660064  51.81095488578607  -0.828367607826893  3.116750884466397  7.297979243978358  2.4129736340305765  32.20996094161564  23.961728153535166  0.000000
0.156  0.000000  0.000000  0.000000  -26.739591924113594  2.5886733151479207  2.9788023271999813  52.846592602808  0.16133757124660172  -2.8233666668667072  12.910637216008439  3.92773070639381  29.113566129753035  24.475699801711297  0.000000
0.195  0.000000  0.000000  0.000000  -27.435213448997498  0.3207905880700318  5.235103159871077  51.93090567565033  1.8544170914666191  -5.428234319936093  18.149877549136047  3.16968334533055  26.74617617938185  24.463543958125772  0.000000
0.23399999999999999  0.000000  0.000000  0.000000  -27.035410780594603  0.17220118105325824  5.108527226398221  53.462039371364604  1.4878724912380703  -6.217499602435709  20.281248407371027  5.619305239225702  21.552503421495963  24.70031175891154  0.000000
0.273  0.000000  0.000000  0.000000  -26.690398183229796  0.06258437655389537  5.233099158176475  53.366807041189155  2.0423055634698275  -6.237250537310343  23.45395080534842  7.120967099361512  18.00915920676524  24.68738621343083  0.000000
0.312  0.000000  0.000000  0.000000  -26.268320895637622  0.13922841565992014  5.621599028646834  52.25136738633252  1.7481181401799857  -5.928383353738654  25.86187060312419  8.633054170825895  13.835137651673474  24.330610200822317  0.000000
0.351  0.000000  0.000000  0.000000  -26.552786980114185  0.5719393671755812  5.858738565246285  53.912570341346054  1.1622249346176579  -5.721526414194951  28.354231367961535  11.196089296924013  9.791401803365842  24.484984750723456  0.000000
0.39  0.000000  0.000000  0.000000  -26.676036269429897  0.7649392437334571  6.002087529342972  53.94059936483328  1.1217527821531217  -5.028654792863374  30.79991790161543  13.157582982548753  6.255054913764199  24.643631880380127  0.000000
0.429  0.000000  0.000000  0.000000  -26.546845662537343  0.5977962712093573  6.27821585263077  54.467134445330046  0.8581455559984993  -4.7452137357847  32.6940878017629  15.391770658497895  2.405969890657548  24.780739400234825  0.000000
0.46799999999999997  0.000000  0.000000  0.000000  -26.79940734524424  0.6598580499774641  6.88841309615979  55.3298313294093  0.6797882289949708  -4.403475163364691  34.71209694333833  17.579557841863167  -1.0566255703810727  25.01528293726792  0.000000
0.507  0.000000  0.000000  0.000000  -27.19082377817566  0.7345700180209096  7.307277703097551  56.44100336906784  0.7684763051804614  -3.8879175927518292  36.33584957617442  19.965180709396183  -4.718290354405295  25.098734561705218  0.000000
0.546  0.000000  0.000000  0.000000  -27.350775861234624  0.7162716708387237  7.645710628652323  57.430572188151785  1.1476456512894044  -3.3707364627374092  37.72112531387778  22.42180062792345  -8.188206692413951  25.144188351827033  0.000000
0.585  0.000000  0.000000  0.000000  -27.43378406541991  0.7712911219427716  7.969999001406627  58.4503915688299  1.6582734702402648  -2.82034921181803  38.86366091188683  24.897365705511298  -11.528361015659854  25.187329431044823  0.000000
0.624  0.000000  0.000000  0.000000  -27.650540077234577  0.8924092176530002  8.311534816244668  59.490251468318014  2.271491283723172  -2.2171790708457118  39.89412706554581  27.364318735855004  -14.651016723164343  25.211527736134414  0.000000
0.663  0.000000  0.000000  0.000000  -27.76629832387646  1.0695864845388974  8.643033096578646  60.41691176525104  2.920606482775536  -1.6404031972446034  40.751734366966325  29.837606303939584  -17.649827910304037  25.183629251508744  0.000000
0.702  0.000000  0.000000  0.000000  -27.85537169101511  1.2491046427905337  9.01133032096652  61.302512155187536  3.62900808582621  -1.1228530947988529  41.5068081172774  32.27101599499836  -20.45251158920291  25.11583266328457  0.000000
0.741  0.000000  0.000000  0.000000  -27.95017428447128  1.4814240355094617  9.412988210260052  62.10162762628055  4.333338209114182  -0.620528856779515  42.173912760704546  34.649954275665586  -23.042307638471378  25.055389619738563  0.000000
0.78  0.000000  0.000000  0.000000  -28.065420122074322  1.74908203592271  9.854723245457205  62.85784953704862  5.0316454973063545  -0.1315516830458351  42.7668092841766  36.94911701305508  -25.424765963726518  24.983882668391495  0.000000
0.819  0.000000  0.000000  0.000000  -28.1876094085879  2.03069736176822  10.324427457213144  63.524600569355385  5.716518975903784  0.32133883324815776  43.29396191196815  39.18001049033847  -27.593879209828987  24.913732759998975  0.000000
0.858  0.000000  0.000000  0.000000  -28.326467861711333  2.3223069231257476  10.817606398637023  64.11846218252761  6.394722271331024  0.7334737860831672  43.77874244990481  41.332222873841076  -29.55920116968276  24.84868965453981  0.000000
0.897  0.000000  0.000000  0.000000  -28.476160968796485  2.621988047400513  11.325230101556581  64.59596372971396  7.052381087515637  1.1000575653858788  44.23538604100973  43.415224018163336  -31.318295919732634  24.800073850558206  0.000000
0.9359999999999999  0.000000  0.000000  0.000000  -28.636296391405438  2.929115024681447  11.83925854257765  64.97343382122428  7.691316806170518  1.421716992255576  44.66519749542999  45.42389550986444  -32.8990860672016  24.75962422556745  0.000000
0.975  0.000000  0.000000  0.000000  -28.804375894747228  3.248844798209665  12.356617096443204  65.22888733068027  8.30692564619327  1.709934595461782  45.07258626679578  47.34833214039604  -34.30545226554364  24.728242435224047  0.000000
1.014  0.000000  0.000000  0.000000  -28.977687633007022  3.5824105408524267  12.866009904578917  65.38594967460551  8.909418003054602  1.97257934557743  45.44567791602931  49.181039323582866  -35.5656797563253  24.694468604894897  0.000000
1.053  0.000000  0.000000  0.000000  -29.158534775871345  3.9342748461313497  13.365968947846955  65.43801869998656  9.501702576712907  2.2304797323402825  45.78213367221338  50.90434536806685  -36.683598837325206  24.658707299085236  0.000000
1.092  0.000000  0.000000  0.000000  -29.34536551791582  4.3066704775640074  13.842303392637033  65.41015386585109  10.099604528020967  2.4945530685206174  46.06877807929436  52.51327951695921  -37.686259323394545  24.611935800436395  0.000000
1.131  0.000000  0.000000  0.000000  -29.542983976903276  4.698342148787293  14.296284824117468  65.30140453689874  10.708993751749707  2.783670385475267  46.30689901426008  53.99169931341518  -38.58066459977397  24.55569866846474  0.000000
1.17  0.000000  0.000000  0.000000  -29.745520568658414  5.1080464893576  14.713873083709549  65.12852728955434  11.343408301744564  3.0997098642531355  46.49382679074781  55.34390453261402  -39.388605706487084  24.4821010048667  0.000000
1.209  0.000000  0.000000  0.000000  -29.950120095712094  5.526409196045101  15.093325278800265  64.88684900517214  12.011144779397146  3.453323567101877  46.64240191949872  56.56002564908627  -40.11247339236144  24.391378408902114  0.000000
1.248  0.000000  0.000000  0.000000  -30.14646610813739  5.9506242227161  15.418046053863618  64.58851374854125  12.724311879060457  3.844635878339094  46.759053953637434  57.64943515625346  -40.76636120666104  24.277715071736147  0.000000
1.287  0.000000  0.000000  0.000000  -30.334626095314068  6.3704890149313975  15.69136954064966  64.23577184589026  13.479804952493051  4.284501470020008  46.86114907120707  58.606285981314066  -41.347033106166556  24.141003997039256  0.000000
1.326  0.000000  0.000000  0.000000  -30.511527388551915  6.77966810366598  15.917379595109487  63.85113175802537  14.260964494871079  4.76322342851087  46.950863072191  59.442527986153586  -41.85919456568443  23.977442453697968  0.000000
1.365  0.000000  0.000000  0.000000  -30.684444681703248  7.163260413536306  16.13114266856632  63.45881282147018  15.023450405760327  5.269897424137035  47.03192131538584  60.15700148970813  -42.29063939200678  23.78108651810536  0.000000
